<svg width="78px" height="34px" viewBox="0 0 78 34" version="1.1" xmlns="http://www.w3.org/2000/svg" xmlns:xlink="http://www.w3.org/1999/xlink">
    <g id="Page-1" stroke="none" stroke-width="1" fill="none" fill-rule="evenodd">
        <path d="M70.6359872,6.11559972 L69.4195101,6.12112897 L69.3929028,7.35013003 C69.3814641,7.86711472 69.1464742,12.3988362 64.419322,12.3988362 L63.2105537,12.3988362 L63.1764863,13.620046 C63.1720103,13.775619 63.0063984,17.4254254 57.4566571,17.4254254 L56.1200741,17.4254254 C58.1581456,15.5977575 59.4459899,12.933414 59.4459899,9.96948565 C59.4459899,7.00555734 58.1581456,4.34096241 56.1198254,2.51329459 L75.2034954,2.51329459 C74.7857355,3.97452406 73.6582811,6.11559972 70.6359872,6.11559972 L70.6359872,6.11559972 Z M42.2051882,9.96948565 C42.2051882,5.85823836 45.5146921,2.51329459 49.5821317,2.51329459 C53.64982,2.51329459 56.9593239,5.85823836 56.9593239,9.96948565 C56.9593239,14.0804816 53.64982,17.4254254 49.5821317,17.4254254 C45.5146921,17.4254254 42.2051882,14.0804816 42.2051882,9.96948565 L42.2051882,9.96948565 Z M28.1139977,17.4254254 C24.0463094,17.4254254 20.7368055,14.0804816 20.7368055,9.96948565 C20.7368055,5.85823836 24.0463094,2.51329459 28.1139977,2.51329459 C32.181686,2.51329459 35.4911899,5.85823836 35.4911899,9.96948565 C35.4911899,14.0804816 32.181686,17.4254254 28.1139977,17.4254254 L28.1139977,17.4254254 Z M20.5438402,17.4254254 C15.1686629,17.4254254 14.8429097,13.9975429 14.824011,13.620046 L14.7899437,12.3988362 L13.5811753,12.3988362 C8.85402314,12.3988362 8.6190332,7.86686339 8.6078432,7.35565927 L8.59118254,6.11559972 L7.36451017,6.11559972 C4.32903693,6.11559972 3.20556121,3.98533123 2.79153131,2.51329459 L21.576304,2.51329459 C19.5379838,4.34096241 18.2501395,7.00555734 18.2501395,9.96948565 C18.2501395,12.933414 19.5379838,15.5977575 21.5760553,17.4254254 L20.5438402,17.4254254 Z M49.5821317,0 C46.6938691,0 44.0918217,1.26117122 42.2862535,3.26728297 C39.6210448,2.11594271 37.1403468,2.53264696 35.4285259,3.28864597 C33.6222117,1.27047041 31.012207,0 28.1139977,0 C28.0490957,0 27.9851884,0.00376994188 27.9207837,0.00502658918 L27.9207837,0 L0,0 L0.0718646489,1.32526024 C0.0758433145,1.39889977 0.180283289,3.14890679 1.09438173,4.90067312 C1.88439553,6.41417912 3.40374849,8.18655447 6.24774845,8.55852206 C6.36835175,9.24917542 6.60383903,10.16502 7.06362358,11.0818698 C7.85587539,12.6629835 9.43938433,14.5185489 12.5482142,14.8575923 C13.0542508,16.6661591 14.7683097,19.93872 20.5438402,19.93872 L27.9207837,19.93872 L27.9207837,19.9336934 C27.9851884,19.93495 28.0490957,19.93872 28.1139977,19.93872 C33.5528337,19.93872 37.9778559,15.4665636 37.9778559,9.96948565 C37.9778559,8.33031492 37.5819787,6.78363343 36.8854635,5.41816048 C37.0617681,5.35432279 37.2497601,5.29425505 37.4511801,5.24222985 C38.5868404,4.9491797 39.7165328,4.9994456 40.8275752,5.38548765 C40.1206161,6.75900314 39.7185222,8.31724578 39.7185222,9.96948565 C39.7185222,15.4665636 44.1432957,19.93872 49.5821317,19.93872 L57.4566571,19.93872 C63.2321877,19.93872 64.9459979,16.6661591 65.4520344,14.8575923 C68.5608643,14.5185489 70.1443733,12.6629835 70.9368738,11.0818698 C71.396907,10.1645173 71.6321456,9.24842143 71.7527489,8.55776808 C76.3272197,7.95508003 77.8010667,3.67041542 77.9281354,1.32526024 L78,0 L49.5821317,0 Z M28.1139977,6.70207702 C26.3285715,6.70207702 24.8813318,8.16481447 24.8813318,9.96935998 C24.8813318,11.7739055 26.3285715,13.2366429 28.1139977,13.2366429 C29.8994239,13.2366429 31.3466636,11.7739055 31.3466636,9.96935998 C31.3466636,8.16481447 29.8994239,6.70207702 28.1139977,6.70207702 M49.5821814,6.70207702 C51.3676077,6.70207702 52.8148473,8.16481447 52.8148473,9.96935998 C52.8148473,11.7739055 51.3676077,13.2366429 49.5821814,13.2366429 C47.7967552,13.2366429 46.3495156,11.7739055 46.3495156,9.96935998 C46.3495156,8.16481447 47.7967552,6.70207702 49.5821814,6.70207702 Z M5.0905784,24.9501037 L8.55823421,24.9501037 C9.38156934,24.9501037 10.0069659,25.150162 10.4344237,25.5502785 C10.8621303,25.950395 11.0757349,26.5264421 11.0757349,27.2786711 C11.0757349,27.7345828 10.9944209,28.1128336 10.8320416,28.4126697 C10.669911,28.7130084 10.4224877,28.9668511 10.0900205,29.1749519 C10.4224877,29.2390409 10.705719,29.3370594 10.939217,29.4687561 C11.1727149,29.6009553 11.3624475,29.7630628 11.5091608,29.9550786 C11.6556254,30.1470943 11.7603141,30.3632376 11.8239727,30.6032572 C11.8871341,30.8432769 11.9189634,31.0996329 11.9189634,31.3713201 C11.9189634,31.7955642 11.8456067,32.1715531 11.6991421,32.499538 C11.5526775,32.8277743 11.3467815,33.103734 11.0814543,33.3276686 C10.8163757,33.5521058 10.4938551,33.7199938 10.1138925,33.8318355 C9.73392992,33.9439284 9.30622336,33.9999749 8.83127014,33.9999749 L5.0905784,33.9999749 L5.0905784,24.9501037 Z M7.41809783,32.1755743 L7.92885903,32.1755743 C8.51446889,32.1755743 8.93421812,32.0994215 9.18736072,31.9476185 C9.44075199,31.7955642 9.56757196,31.5515233 9.56757196,31.2154958 C9.56757196,30.879217 9.44075199,30.6351761 9.18736072,30.4833731 C8.93421812,30.3313188 8.51446889,30.2551659 7.92885903,30.2551659 L7.41809783,30.2551659 L7.41809783,32.1755743 Z M7.41809783,28.5028969 L7.84580439,28.5028969 C8.57390021,28.5028969 8.93819678,28.2108521 8.93819678,27.6265111 C8.93819678,27.0426728 8.57390021,26.7503766 7.84580439,26.7503766 L7.41809783,26.7503766 L7.41809783,28.5028969 Z M13.3082388,33.9999246 L13.3082388,24.9500534 L15.6357583,24.9500534 L15.6357583,33.9999246 L13.3082388,33.9999246 Z M24.957573,33.9998995 L22.0601097,33.9998995 L19.8392683,30.5189865 L19.8392683,33.9998995 L17.5117489,33.9998995 L17.5117489,24.9500283 L21.133578,24.9500283 C21.6324032,24.9500283 22.0678184,25.0241705 22.4400723,25.1722036 C22.8120775,25.3202366 23.1186835,25.5223055 23.3603874,25.7781589 C23.6018427,26.0345149 23.783618,26.3303297 23.9064593,26.6663572 C24.0293006,27.0023847 24.0907212,27.3625398 24.0907212,27.7465712 C24.0907212,28.4347113 23.9263526,28.992914 23.597864,29.4209281 C23.2691268,29.8489421 22.7844756,30.1392276 22.1431644,30.2910306 L24.957573,33.9998995 Z M19.8392683,28.9949246 L20.2786622,28.9949246 C20.7377007,28.9949246 21.0900613,28.8989168 21.3357439,28.7069011 C21.5809292,28.5148854 21.7037705,28.2386743 21.7037705,27.8787705 C21.7037705,27.5186154 21.5809292,27.2424043 21.3357439,27.0506399 C21.0900613,26.8583729 20.7377007,26.762365 20.2786622,26.762365 L19.8392683,26.762365 L19.8392683,28.9949246 Z M25.9314509,24.9501288 L29.3752347,24.9501288 C29.9847166,24.9501288 30.5568984,25.0742856 31.091283,25.3220964 C31.6256675,25.5704099 32.0926634,25.9004055 32.4925193,26.3123345 C32.8921265,26.7245148 33.2066898,27.2048054 33.4364577,27.7524523 C33.6662257,28.3008532 33.7811096,28.8748897 33.7811096,29.4750644 C33.7811096,30.0671966 33.668215,30.6374632 33.4426744,31.1853614 C33.2168851,31.7335109 32.9040625,32.2155608 32.5044553,32.6315111 C32.1045994,33.047964 31.6376035,33.3799702 31.103219,33.6277811 C30.5688344,33.8760946 29.9929226,34 29.3752347,34 L25.9314509,34 L25.9314509,24.9501288 Z M28.2589703,32.00746 L28.7933549,32.00746 C29.1969408,32.00746 29.5572587,31.9436224 29.8740599,31.8154443 C30.1906125,31.687769 30.4579291,31.5113357 30.6757611,31.2874011 C30.8933443,31.0634666 31.0597023,30.79756 31.1745863,30.4891788 C31.2892216,30.1813002 31.3466636,29.8432621 31.3466636,29.4750644 C31.3466636,29.1149093 31.2872322,28.7788818 31.1683696,28.4667306 C31.0497556,28.1548308 30.8814083,27.8866622 30.6638251,27.6627277 C30.4459931,27.4385418 30.1786765,27.2626112 29.8621239,27.1344332 C29.5455713,27.0067578 29.1889834,26.9426688 28.7933549,26.9426688 L28.2589703,26.9426688 L28.2589703,32.00746 Z M39.3027765,33.9999246 L39.3027765,24.9500534 L41.6302959,24.9500534 L45.9292441,30.4833228 L45.9292441,24.9500534 L48.2448276,24.9500534 L48.2448276,33.9999246 L45.9292441,33.9999246 L41.6302959,28.4666552 L41.6302959,33.9999246 L39.3027765,33.9999246 Z M55.2157482,26.9425683 L52.4488349,26.9425683 L52.4488349,28.4548176 L55.061575,28.4548176 L55.061575,30.4471062 L52.4488349,30.4471062 L52.4488349,32.0073595 L55.2157482,32.0073595 L55.2157482,33.9998995 L50.1213155,33.9998995 L50.1213155,24.9500283 L55.2157482,24.9500283 L55.2157482,26.9425683 Z M64.3357701,33.9998995 L61.4383068,33.9998995 L59.2174653,30.5189865 L59.2174653,33.9998995 L56.8899459,33.9998995 L56.8899459,24.9500283 L60.511775,24.9500283 C61.0106002,24.9500283 61.4460154,25.0241705 61.8182693,25.1722036 C62.1902746,25.3202366 62.4968805,25.5223055 62.7385844,25.7781589 C62.9800397,26.0345149 63.161815,26.3303297 63.2846563,26.6663572 C63.4074976,27.0023847 63.4689183,27.3625398 63.4689183,27.7465712 C63.4689183,28.4347113 63.3045496,28.992914 62.9760611,29.4209281 C62.6473238,29.8489421 62.1626726,30.1392276 61.5213614,30.2910306 L64.3357701,33.9998995 Z M59.2174653,28.9949246 L59.6568592,28.9949246 C60.1158978,28.9949246 60.4682583,28.8989168 60.713941,28.7069011 C60.9591262,28.5148854 61.0819675,28.2386743 61.0819675,27.8787705 C61.0819675,27.5186154 60.9591262,27.2424043 60.713941,27.0506399 C60.4682583,26.8583729 60.1158978,26.762365 59.6568592,26.762365 L59.2174653,26.762365 L59.2174653,28.9949246 Z M65.3096479,24.9501288 L68.7534318,24.9501288 C69.3629136,24.9501288 69.9350955,25.0742856 70.46948,25.3220964 C71.0038645,25.5704099 71.4708604,25.9004055 71.8707163,26.3123345 C72.2703236,26.7245148 72.5848868,27.2048054 72.8146548,27.7524523 C73.0444227,28.3008532 73.1593067,28.8748897 73.1593067,29.4750644 C73.1593067,30.0671966 73.046412,30.6374632 72.8208714,31.1853614 C72.5950821,31.7335109 72.2822596,32.2155608 71.8826523,32.6315111 C71.4827964,33.047964 71.0158005,33.3799702 70.481416,33.6277811 C69.9470315,33.8760946 69.3711196,34 68.7534318,34 L65.3096479,34 L65.3096479,24.9501288 Z M67.6371674,32.00746 L68.1715519,32.00746 C68.5751378,32.00746 68.9354557,31.9436224 69.252257,31.8154443 C69.5688096,31.687769 69.8361262,31.5113357 70.0539581,31.2874011 C70.2715414,31.0634666 70.4378993,30.79756 70.5527833,30.4891788 C70.6674186,30.1813002 70.7248606,29.8432621 70.7248606,29.4750644 C70.7248606,29.1149093 70.6654293,28.7788818 70.5465666,28.4667306 C70.4279527,28.1548308 70.2596054,27.8866622 70.0420221,27.6627277 C69.8241902,27.4385418 69.5568736,27.2626112 69.240321,27.1344332 C68.9237684,27.0067578 68.5671805,26.9426688 68.1715519,26.9426688 L67.6371674,26.9426688 L67.6371674,32.00746 Z" id="bird-nerd" fill="#010202"></path>
    </g>
</svg>